ffmpeg started on 2016-11-26 at 14:54:56
Report written to "Output/NVENCh264/results/ffmpeg/crowd_run_2160p50ll5000k.log"
Command line:
Tools/ffmpeg/ffmpeg -benchmark -y -i Input/y4m/crowd_run_2160p50.y4m -c:v h264_nvenc -preset ll -b:v 5000k -an Output/NVENCh264/encoded/crowd_run_2160p50ll5000k.mkv
ffmpeg version N-82227-gdb23fde Copyright (c) 2000-2016 the FFmpeg developers
  built with gcc 5.4.0 (Ubuntu 5.4.0-6ubuntu1~16.04.2) 20160609
  configuration: --prefix=/home/jaroslav/ffmpeg_build --pkg-config-flags=--static --extra-cflags=-I/home/jaroslav/ffmpeg_build/include --extra-ldflags=-L/home/jaroslav/ffmpeg_build/lib --bindir=/home/jaroslav/bin --enable-gpl --enable-libass --enable-libfdk-aac --enable-libfreetype --enable-libmp3lame --enable-libopus --enable-libtheora --enable-libvorbis --enable-libvpx --enable-libx264 --enable-libx265 --enable-nvenc --enable-libmfx --enable-libxvid --enable-libgsm --enable-libopencore-amrnb --enable-version3 --enable-nonfree
  libavutil      55. 35.100 / 55. 35.100
  libavcodec     57. 66.101 / 57. 66.101
  libavformat    57. 57.100 / 57. 57.100
  libavdevice    57.  2.100 / 57.  2.100
  libavfilter     6. 66.100 /  6. 66.100
  libswscale      4.  3.100 /  4.  3.100
  libswresample   2.  4.100 /  2.  4.100
  libpostproc    54.  2.100 / 54.  2.100
Input #0, yuv4mpegpipe, from 'Input/y4m/crowd_run_2160p50.y4m':
  Duration: 00:00:10.00, start: 0.000000, bitrate: 4976642 kb/s
    Stream #0:0: Video: rawvideo (I420 / 0x30323449), yuv420p(progressive), 3840x2160, SAR 1:1 DAR 16:9, 50 fps, 50 tbr, 50 tbn, 50 tbc
[h264_nvenc @ 0x42f91c0] The variable bitrate rate-control requires the 'qmin' and/or 'qmax' option set.
Output #0, matroska, to 'Output/NVENCh264/encoded/crowd_run_2160p50ll5000k.mkv':
  Metadata:
    encoder         : Lavf57.57.100
    Stream #0:0: Video: h264 (h264_nvenc) (Main) (H264 / 0x34363248), yuv420p, 3840x2160 [SAR 1:1 DAR 16:9], q=-1--1, 5000 kb/s, 50 fps, 1k tbn, 50 tbc
    Metadata:
      encoder         : Lavc57.66.101 h264_nvenc
    Side data:
      cpb: bitrate max/min/avg: 0/0/5000000 buffer size: 10000000 vbv_delay: -1
Stream mapping:
  Stream #0:0 -> #0:0 (rawvideo (native) -> h264 (h264_nvenc))
Press [q] to stop, [?] for help
frame=    3 fps=0.0 q=0.0 size=       0kB time=00:00:00.00 bitrate=N/A speed=   0x    frame=   16 fps= 13 q=0.0 size=       0kB time=00:00:00.00 bitrate=N/A speed=   0x    frame=   28 fps= 14 q=0.0 size=       0kB time=00:00:00.00 bitrate=N/A speed=   0x    frame=   33 fps= 13 q=49.0 size=       1kB time=00:00:00.04 bitrate= 145.8kbits/s speed=0.0156x    frame=   38 fps= 11 q=49.0 size=       1kB time=00:00:00.14 bitrate=  42.4kbits/s speed=0.0406x    frame=   41 fps=9.7 q=49.0 size=       1kB time=00:00:00.20 bitrate=  29.7kbits/s speed=0.0474x    frame=   59 fps= 12 q=49.0 size=       1kB time=00:00:00.56 bitrate=  10.7kbits/s speed=0.118x    frame=   77 fps= 15 q=48.0 size=       1kB time=00:00:00.92 bitrate=   6.5kbits/s speed=0.175x    frame=   80 fps=8.7 q=48.0 size=       1kB time=00:00:00.98 bitrate=   6.1kbits/s speed=0.107x    frame=   97 fps= 10 q=49.0 size=       1kB time=00:00:01.32 bitrate=   4.5kbits/s speed=0.137x    frame=  115 fps= 11 q=49.0 size=       1kB time=00:00:01.68 bitrate=   3.6kbits/s speed=0.165x    frame=  133 fps= 12 q=49.0 size=       1kB time=00:00:02.04 bitrate=   2.9kbits/s speed=0.191x    frame=  151 fps= 13 q=49.0 size=       1kB time=00:00:02.40 bitrate=   2.5kbits/s speed=0.208x    frame=  155 fps= 13 q=49.0 size=       1kB time=00:00:02.48 bitrate=   2.4kbits/s speed=0.206x    frame=  161 fps= 12 q=49.0 size=       1kB time=00:00:02.60 bitrate=   2.3kbits/s speed=0.201x    frame=  166 fps= 12 q=49.0 size=       1kB time=00:00:02.70 bitrate=   2.2kbits/s speed= 0.2x    frame=  172 fps= 12 q=49.0 size=       1kB time=00:00:02.82 bitrate=   2.1kbits/s speed=0.198x    frame=  189 fps= 13 q=49.0 size=       1kB time=00:00:03.16 bitrate=   1.9kbits/s speed=0.214x    frame=  196 fps= 13 q=49.0 size=       1kB time=00:00:03.30 bitrate=   1.8kbits/s speed=0.216x    frame=  213 fps= 13 q=49.0 size=       1kB time=00:00:03.64 bitrate=   1.6kbits/s speed=0.23x    frame=  231 fps= 14 q=49.0 size=       1kB time=00:00:04.00 bitrate=   1.5kbits/s speed=0.245x    frame=  249 fps= 15 q=49.0 size=       1kB time=00:00:04.36 bitrate=   1.4kbits/s speed=0.258x    frame=  267 fps= 15 q=49.0 size=       1kB time=00:00:04.72 bitrate=   1.3kbits/s speed=0.271x    frame=  284 fps= 16 q=49.0 size=    3253kB time=00:00:05.06 bitrate=5265.2kbits/s speed=0.283x    frame=  286 fps= 15 q=49.0 size=    3253kB time=00:00:05.10 bitrate=5223.9kbits/s speed=0.274x    frame=  289 fps= 15 q=49.0 size=    3253kB time=00:00:05.16 bitrate=5163.1kbits/s speed=0.269x    frame=  307 fps= 16 q=49.0 size=    3253kB time=00:00:05.52 bitrate=4826.5kbits/s speed=0.279x    frame=  311 fps= 15 q=49.0 size=    3253kB time=00:00:05.60 bitrate=4757.5kbits/s speed=0.275x    frame=  315 fps= 15 q=49.0 size=    3253kB time=00:00:05.68 bitrate=4690.5kbits/s speed=0.267x    frame=  321 fps= 15 q=49.0 size=    3253kB time=00:00:05.80 bitrate=4593.5kbits/s speed=0.266x    frame=  338 fps= 15 q=49.0 size=    3253kB time=00:00:06.14 bitrate=4339.2kbits/s speed=0.275x    frame=  347 fps= 15 q=49.0 size=    3253kB time=00:00:06.32 bitrate=4215.6kbits/s speed=0.276x    frame=  353 fps= 15 q=49.0 size=    3253kB time=00:00:06.44 bitrate=4137.1kbits/s speed=0.275x    frame=  357 fps= 15 q=49.0 size=    3253kB time=00:00:06.52 bitrate=4086.3kbits/s speed=0.269x    frame=  366 fps= 15 q=49.0 size=    3253kB time=00:00:06.70 bitrate=3976.6kbits/s speed=0.27x    frame=  371 fps= 14 q=49.0 size=    3253kB time=00:00:06.80 bitrate=3918.1kbits/s speed=0.265x    frame=  372 fps= 14 q=49.0 size=    3253kB time=00:00:06.82 bitrate=3906.6kbits/s speed=0.256x    frame=  374 fps= 13 q=49.0 size=    3253kB time=00:00:06.86 bitrate=3883.8kbits/s speed=0.247x    frame=  376 fps= 13 q=49.0 size=    3253kB time=00:00:06.90 bitrate=3861.3kbits/s speed=0.239x    frame=  377 fps= 13 q=49.0 size=    3253kB time=00:00:06.92 bitrate=3850.2kbits/s speed=0.235x    frame=  378 fps= 13 q=49.0 size=    3253kB time=00:00:06.94 bitrate=3839.1kbits/s speed=0.23x    frame=  380 fps= 12 q=49.0 size=    3253kB time=00:00:06.98 bitrate=3817.1kbits/s speed=0.225x    frame=  382 fps= 12 q=49.0 size=    3253kB time=00:00:07.02 bitrate=3795.3kbits/s speed=0.223x    frame=  383 fps= 12 q=49.0 size=    3253kB time=00:00:07.04 bitrate=3784.5kbits/s speed=0.218x    frame=  384 fps= 12 q=49.0 size=    3253kB time=00:00:07.06 bitrate=3773.8kbits/s speed=0.215x    frame=  385 fps= 12 q=49.0 size=    3253kB time=00:00:07.08 bitrate=3763.2kbits/s speed=0.212x    frame=  386 fps= 11 q=49.0 size=    3253kB time=00:00:07.10 bitrate=3752.6kbits/s speed=0.209x    frame=  388 fps= 11 q=49.0 size=    3253kB time=00:00:07.14 bitrate=3731.5kbits/s speed=0.205x    frame=  390 fps= 11 q=49.0 size=    3253kB time=00:00:07.18 bitrate=3710.8kbits/s speed=0.202x    frame=  392 fps= 11 q=49.0 size=    3253kB time=00:00:07.22 bitrate=3690.2kbits/s speed=0.199x    frame=  394 fps= 11 q=49.0 size=    3253kB time=00:00:07.26 bitrate=3669.9kbits/s speed=0.196x    frame=  396 fps= 10 q=49.0 size=    3253kB time=00:00:07.30 bitrate=3649.8kbits/s speed=0.193x    frame=  401 fps= 10 q=49.0 size=    3253kB time=00:00:07.40 bitrate=3600.5kbits/s speed=0.193x    frame=  406 fps= 10 q=49.0 size=    3253kB time=00:00:07.50 bitrate=3552.5kbits/s speed=0.193x    frame=  410 fps= 10 q=49.0 size=    3253kB time=00:00:07.58 bitrate=3515.0kbits/s speed=0.191x    frame=  414 fps= 10 q=49.0 size=    3253kB time=00:00:07.66 bitrate=3478.3kbits/s speed=0.189x    frame=  420 fps= 10 q=49.0 size=    3253kB time=00:00:07.78 bitrate=3424.6kbits/s speed=0.189x    frame=  424 fps= 10 q=49.0 size=    3253kB time=00:00:07.86 bitrate=3389.8kbits/s speed=0.188x    frame=  431 fps= 10 q=49.0 size=    3253kB time=00:00:08.00 bitrate=3330.5kbits/s speed=0.188x    frame=  434 fps= 10 q=49.0 size=    3253kB time=00:00:08.06 bitrate=3305.7kbits/s speed=0.186x    frame=  437 fps=9.9 q=49.0 size=    3253kB time=00:00:08.12 bitrate=3281.2kbits/s speed=0.184x    frame=  443 fps=9.9 q=49.0 size=    3253kB time=00:00:08.24 bitrate=3233.5kbits/s speed=0.185x    frame=  454 fps= 10 q=49.0 size=    3253kB time=00:00:08.46 bitrate=3149.4kbits/s speed=0.187x    frame=  460 fps= 10 q=49.0 size=    3253kB time=00:00:08.58 bitrate=3105.3kbits/s speed=0.188x    frame=  463 fps=9.9 q=49.0 size=    3253kB time=00:00:08.64 bitrate=3083.8kbits/s speed=0.186x    frame=  481 fps= 10 q=49.0 size=    3253kB time=00:00:09.00 bitrate=2960.4kbits/s speed=0.191x    frame=  499 fps= 10 q=49.0 size=    3253kB time=00:00:09.36 bitrate=2846.6kbits/s speed=0.197x    frame=  500 fps= 10 q=49.0 Lsize=    6672kB time=00:00:09.98 bitrate=5476.3kbits/s speed=0.209x    
video:6668kB audio:0kB subtitle:0kB other streams:0kB global headers:0kB muxing overhead: 0.063795%
bench: utime=1.276s
bench: maxrss=1408960kB
